<?xml version="1.0" encoding="UTF-8" standalone="no"?>
<!-- Uploaded to: SVG Repo, www.svgrepo.com, Generator: SVG Repo Mixer Tools -->

<svg
   width="800px"
   height="800px"
   viewBox="0 0 20 20"
   version="1.1"
   id="svg186"
   sodipodi:docname="hamburger_red-svgrepo-com.svg"
   inkscape:version="1.2.2 (b0a8486541, 2022-12-01)"
   xmlns:inkscape="http://www.inkscape.org/namespaces/inkscape"
   xmlns:sodipodi="http://sodipodi.sourceforge.net/DTD/sodipodi-0.dtd"
   xmlns="http://www.w3.org/2000/svg"
   xmlns:svg="http://www.w3.org/2000/svg"
   xmlns:rdf="http://www.w3.org/1999/02/22-rdf-syntax-ns#"
   xmlns:cc="http://creativecommons.org/ns#"
   xmlns:dc="http://purl.org/dc/elements/1.1/"
   xmlns:sketch="http://www.bohemiancoding.com/sketch/ns">
  <sodipodi:namedview
     id="namedview188"
     pagecolor="#ffffff"
     bordercolor="#000000"
     borderopacity="0.25"
     inkscape:showpageshadow="2"
     inkscape:pageopacity="0.0"
     inkscape:pagecheckerboard="0"
     inkscape:deskcolor="#d1d1d1"
     showgrid="false"
     inkscape:zoom="1.0075"
     inkscape:cx="399.50372"
     inkscape:cy="400"
     inkscape:window-width="1920"
     inkscape:window-height="1008"
     inkscape:window-x="1920"
     inkscape:window-y="0"
     inkscape:window-maximized="1"
     inkscape:current-layer="svg186" />
  <title
     id="title177">hamburger</title>
  <desc
     id="desc179">Created with Sketch Beta.</desc>
  <defs
     id="defs181" />
  <path
     d="M 18,16 H 2 c -1.104,0 -2,0.896 -2,2 0,1.104 0.896,2 2,2 h 16 c 1.104,0 2,-0.896 2,-2 0,-1.104 -0.896,-2 -2,-2 z M 18,8 H 2 c -1.104,0 -2,0.896 -2,2 0,1.104 0.896,2 2,2 h 16 c 1.104,0 2,-0.896 2,-2 C 20,8.896 19.104,8 18,8 Z M 2,4 H 18 C 19.104,4 20,3.104 20,2 20,0.896 19.104,0 18,0 H 2 C 0.896,0 0,0.896 0,2 0,3.104 0.896,4 2,4 Z"
     id="hamburger"
     sketch:type="MSShapeGroup"
     style="fill:#aa0000;fill-rule:evenodd;stroke:none;stroke-width:1" />
  <metadata
     id="metadata414">
    <rdf:RDF>
      <cc:Work
         rdf:about="">
        <dc:title>hamburger</dc:title>
      </cc:Work>
    </rdf:RDF>
  </metadata>
</svg>
